<?xml version="1.0" standalone="no"?>
<!DOCTYPE svg PUBLIC "-//W3C//DTD SVG 20010904//EN"
 "http://www.w3.org/TR/2001/REC-SVG-20010904/DTD/svg10.dtd">
<svg version="1.0" xmlns="http://www.w3.org/2000/svg"
 width="300.000000pt" height="225.000000pt" viewBox="0 0 300.000000 225.000000"
 preserveAspectRatio="xMidYMid meet">
<metadata>
Created by potrace 1.10, written by Peter Selinger 2001-2011
</metadata>
<g transform="translate(0.000000,225.000000) scale(0.100000,-0.100000)"
fill="#ff4a3f" stroke="none">
<path d="M1423 1619 c-70 -8 -113 -26 -141 -59 -31 -35 -52 -97 -52 -152 0
-113 55 -203 178 -287 111 -76 158 -142 147 -203 -8 -38 -22 -42 -39 -10 -9
17 -16 37 -16 45 0 8 -9 22 -19 31 -17 15 -30 17 -83 11 -95 -11 -104 -24 -12
-18 l81 6 7 -44 c4 -24 14 -54 22 -66 13 -21 13 -23 -4 -23 -28 0 -53 33 -59
79 -3 23 -10 38 -15 34 -15 -9 -2 -82 18 -104 22 -24 60 -24 102 1 28 17 32
25 32 62 0 62 -32 118 -92 163 -29 21 -76 56 -104 77 -89 66 -133 148 -134
247 -1 119 70 189 199 199 144 10 211 -44 245 -200 6 -25 3 -28 -31 -35 -21
-4 -57 -7 -80 -7 -45 1 -57 -10 -22 -21 30 -10 121 5 142 23 50 44 -28 222
-109 246 -39 12 -88 13 -161 5z"/>
<path d="M1530 1585 c0 -4 14 -25 32 -47 17 -23 37 -61 44 -87 11 -43 10 -47
-10 -59 -20 -12 -19 -12 9 -10 19 2 31 9 33 20 5 26 -16 92 -40 128 -23 32
-68 69 -68 55z"/>
<path d="M1369 1468 c-15 -25 -18 -43 -14 -71 10 -71 41 -114 115 -164 39 -25
70 -50 70 -54 0 -5 3 -8 8 -7 16 6 82 -70 106 -122 56 -120 22 -244 -79 -291
-46 -21 -21 -26 28 -5 99 41 132 176 75 306 -25 58 -55 90 -150 156 -93 66
-134 111 -148 164 -14 53 3 89 50 106 l35 12 -38 1 c-32 1 -40 -4 -58 -31z"/>
<path d="M1441 1464 c-20 -15 -23 -23 -19 -66 6 -61 27 -90 109 -150 167 -124
206 -178 216 -298 10 -114 -42 -192 -147 -220 -52 -14 -150 -6 -191 15 -40 21
-78 72 -91 121 -7 24 -16 44 -20 44 -11 0 -11 -2 12 -64 28 -75 70 -109 159
-131 117 -28 195 -11 258 58 53 58 66 153 36 256 -24 81 -68 133 -188 221 -33
24 -72 58 -87 75 -33 36 -46 88 -28 111 16 18 29 7 36 -32 7 -39 14 -43 14 -8
0 32 -19 76 -35 81 -6 2 -21 -4 -34 -13z"/>
</g>
</svg>
